<svg viewBox="0 0 568.45 229" xmlns="http://www.w3.org/2000/svg"><path d="m471.07 158h7.76a14.24 14.24 0 0 1 14.24 14.24 14.24 14.24 0 0 1 -6.52 12l-16 10.3z" fill="#59a562"/><path d="m470 196.35.54-39.35h8.75a15.24 15.24 0 0 1 8.25 28zm2.56-37.35-.46 33.65 14.41-9.29a13.24 13.24 0 0 0 -7.18-24.36z" fill="#463e3b"/><path d="m472.4 163h5.18a9.49 9.49 0 0 1 9.49 9.49 9.49 9.49 0 0 1 -4.35 8l-10.65 6.86z" fill="#fff"/><path d="m471 189.18.37-27.18h6.16a10.49 10.49 0 0 1 5.68 19.31zm2.39-25.18-.29 21.48 9.08-5.85a8.49 8.49 0 0 0 -4.6-15.63z" fill="#463e3b"/><path d="m465.07 218c18.5-14.5 13.5-71 13.5-71h-63.5l-23 45 5 26.67z" fill="#76d98c"/><path d="m472.93 146.5h-2.36s5 56.5-13.5 71l-61 .6v.07l68-.67c15.25-12 14.53-52.45 13.81-66.31a5 5 0 0 0 -4.95-4.69z" fill="#6dcc7e"/><path d="m465.69 217.79-1.23-1.57c14.85-11.64 14.06-52.48 13.46-64.73a4.71 4.71 0 0 0 -4.71-4.49h-58.14v-2h58.14a6.71 6.71 0 0 1 6.7 6.39c.78 16 .96 54.5-14.22 66.4z" fill="#463e3b"/><path d="m167.07 213h-97.41l-29.3-29.29 1.42-1.42 28.7 28.71h96.59z" fill="#463e3b"/><path d="m1 217h566.45v11h-566.45z" fill="#ea9178"/><path d="m1.82 217.63h566.45v1.89h-566.45z" fill="#a76c59"/><path d="m562.37 216.05v9.05h-557.74v-9.05h-4.36v11h566.46v-11z" fill="#fff" opacity=".2"/><path d="m568.45 229h-568.45v-13h568.45zm-566.45-2h564.45v-9h-564.45z" fill="#463e3b"/><g fill="#463e3b" opacity=".15"><path d="m62.07 58h-62v-19h62zm-60-2h58v-15h-58z"/><path d="m122.07 58h-62v-19h62zm-60-2h58v-15h-58z"/><path d="m91.07 41h-62v-19h62zm-60-2h58v-15h-58z"/></g><g fill="#463e3b" opacity=".15"><path d="m438.07 60h-62v-19h62zm-60-2h58v-15h-58z"/><path d="m498.07 60h-62v-19h62zm-60-2h58v-15h-58z"/><path d="m467.07 43h-62v-19h62zm-60-2h58v-15h-58z"/></g><g fill="#463e3b" opacity=".15"><path d="m509.07 119h-62v-19h62zm-60-2h58v-15h-58z"/><path d="m554.07 137h-62v-19h62zm-60-2h58v-15h-58z"/></g><g fill="#463e3b" opacity=".15"><path d="m118.07 156h-62v-19h62zm-60-2h58v-15h-58z"/><path d="m163.07 174h-62v-19h62zm-60-2h58v-15h-58z"/></g><circle cx="27.53" cy="120.43" fill="#e8f0f9" r="25.43"/><path d="m27.53 95a25.35 25.35 0 0 0 -9.53 1.84 25.44 25.44 0 0 1 16 48.16 25.44 25.44 0 0 0 -6.51-50z" fill="#bcd9ea"/><path d="m9.09 119.93a25.43 25.43 0 0 1 22.44-25.25 25.43 25.43 0 1 0 0 50.51 25.43 25.43 0 0 1 -22.44-25.26z" fill="#fff"/><path d="m27.53 146.87a26.43 26.43 0 1 1 26.47-26.43 26.46 26.46 0 0 1 -26.47 26.43zm0-50.87a24.43 24.43 0 1 0 24.47 24.44 24.46 24.46 0 0 0 -24.47-24.44z" fill="#463e3b"/><path d="m18.28 106.66h18.5a3.46 3.46 0 0 1 3.46 3.46v9.25a12.72 12.72 0 0 1 -12.72 12.72 12.72 12.72 0 0 1 -12.72-12.72v-9.25a3.46 3.46 0 0 1 3.48-3.46z" fill="#463e3b"/><path d="m26.53 126.79h2v42.39h-2z" fill="#463e3b"/><g fill="#ea2424"><path d="m31.56 167.88h3.54v.5h-3.54z"/><path d="m32.49 168.72h.5v3.54h-.5z" transform="matrix(.43554534 -.90016679 .90016679 .43554534 -134.99 125.7)"/><path d="m30.13 171.07h.5v3.54h-.5z" transform="matrix(.94449111 -.32853698 .32853698 .94449111 -55.09 19.57)"/><path d="m34.8 184.26h3.54v.5h-3.54z"/><path d="m36.91 180.39h.5v3.54h-.5z" transform="matrix(.43554534 -.90016679 .90016679 .43554534 -143 136.27)"/><path d="m39.26 178.03h.5v3.54h-.5z" transform="matrix(.94449111 -.32853698 .32853698 .94449111 -56.86 22.95)"/></g><path d="m145.88 1h268.94a11.37 11.37 0 0 1 11.37 11.37v190.63a0 0 0 0 1 0 0h-291.68a0 0 0 0 1 0 0v-190.63a11.37 11.37 0 0 1 11.37-11.37z" fill="#e8f0f9"/><path d="m143.07 191.79h274v2.75h-274z" fill="#bcd9ea"/><path d="m414.82 1h-268.94a11.37 11.37 0 0 0 -11.37 11.37v6a11.37 11.37 0 0 1 11.37-11.37h268.94a11.37 11.37 0 0 1 11.37 11.37v-6a11.37 11.37 0 0 0 -11.37-11.37z" fill="#fff"/><path d="m427 204h-293.65v-191.63a12.38 12.38 0 0 1 12.37-12.37h268.94a12.38 12.38 0 0 1 12.34 12.37zm-291.67-2h289.67v-189.63a10.38 10.38 0 0 0 -10.34-10.37h-268.94a10.38 10.38 0 0 0 -10.37 10.37z" fill="#463e3b"/><path d="m143.35 19h273v173h-273z" fill="#fff"/><path d="m144.35 19h272v5h-272z" fill="#463e3b" opacity=".1"/><path d="m417 193h-273.65v-175h273.65zm-271.67-2h269.67v-171h-269.65z" fill="#463e3b"/><path d="m94.07 203h371.5a0 0 0 0 1 0 0v5.66a9.34 9.34 0 0 1 -9.34 9.34h-350.42a11.74 11.74 0 0 1 -11.74-11.74v-3.26a0 0 0 0 1 0 0z" fill="#e8f0f9"/><path d="m95.14 203h371.49v6h-371.49z" fill="#bcd9ea"/><path d="m454.28 219h-348.22a12.65 12.65 0 0 1 -12.64-12.64v-4.36h373.5v4.36a12.65 12.65 0 0 1 -12.64 12.64zm-358.85-15v2.36a10.65 10.65 0 0 0 10.63 10.64h348.22a10.65 10.65 0 0 0 10.64-10.64v-2.36z" fill="#463e3b"/><circle cx="277.6" cy="10.25" fill="#ff4e00" r="1.64"/><path d="m277.6 12.39a2.14 2.14 0 1 1 2.14-2.14 2.14 2.14 0 0 1 -2.14 2.14zm0-3.28a1.14 1.14 0 1 0 1.14 1.14 1.14 1.14 0 0 0 -1.14-1.14z" fill="#463e3b"/><path d="m300.85 210.34h-40.6a27 27 0 0 1 -14.49-4.17l-3-1.91 1.09-1.68 3 1.91a24.93 24.93 0 0 0 13.4 3.85h40.6a24.42 24.42 0 0 0 15.84-5.68l1.31 1.51a26.09 26.09 0 0 1 -17.15 6.17z" fill="#463e3b"/><text fill="#939393" font-family="FiraSans-Bold, Fira Sans" font-size="90.36" font-weight="700" opacity=".45" transform="translate(167.63 140.8)">404...</text><path d="m104.07 37.5a1.5 1.5 0 0 0 0-3 1.5 1.5 0 0 0 0 3z" fill="#e8f0f9"/><path d="m445.95 139.54a25.39 25.39 0 0 1 -6.17-6.33 10.55 10.55 0 0 1 -1.5-4.34 8.45 8.45 0 0 1 .74-4.67 7 7 0 0 1 1.46-2 15.68 15.68 0 0 1 1.82-1.42c1.18-.83 2.35-1.65 2.63-2.64s-.16-2.06-1-3.21a29.78 29.78 0 0 1 -2.42-3.8 25.4 25.4 0 0 1 -2-17.68 22.26 22.26 0 0 1 3.83-8.1 17.06 17.06 0 0 1 6.91-5.45 18.48 18.48 0 0 0 -3.44 2.65 19.34 19.34 0 0 0 -2.67 3.36 22.93 22.93 0 0 0 -3.14 7.9 25.3 25.3 0 0 0 2.3 16.42 27.76 27.76 0 0 0 2.25 3.61 9 9 0 0 1 1.15 2.16 4.13 4.13 0 0 1 0 2.76 5 5 0 0 1 -1.56 2.13 18.22 18.22 0 0 1 -1.87 1.34 7.74 7.74 0 0 0 -2.88 2.68 7.28 7.28 0 0 0 -.81 3.85 9.56 9.56 0 0 0 1.05 4c1.21 2.55 3.37 4.65 5.32 6.78z" fill="#141414" opacity=".35"/><path d="m453.94 133.3c2-2.28 2.3-5.3 1.92-8s-1.62-5.43-2.66-8.23a28.73 28.73 0 0 1 -1.26-4.41 19 19 0 0 1 -.26-4.62 17.53 17.53 0 0 1 2.81-8.58 25.6 25.6 0 0 0 -1.25 8.6 24.91 24.91 0 0 0 1.83 8.32c1 2.74 2.19 5.6 2.33 8.78a11.69 11.69 0 0 1 -.68 4.61 7.14 7.14 0 0 1 -2.78 3.53z" fill="#141414" opacity=".35"/><path d="m462.94 110.3c2-2.28 2.3-5.3 1.92-8s-1.62-5.43-2.66-8.23a28.73 28.73 0 0 1 -1.26-4.41 19 19 0 0 1 -.26-4.62 17.53 17.53 0 0 1 2.81-8.58 25.6 25.6 0 0 0 -1.25 8.6 24.91 24.91 0 0 0 1.83 8.32c1 2.74 2.19 5.6 2.33 8.78a11.69 11.69 0 0 1 -.68 4.61 7.14 7.14 0 0 1 -2.78 3.53z" fill="#141414" opacity=".35"/></svg>